<svg width="62" height="50" viewBox="0 0 62 50" fill="none" xmlns="http://www.w3.org/2000/svg">
<rect x="3.48942" y="20.5846" width="49" height="25" transform="rotate(-17.9652 3.48942 20.5846)" stroke="#EAE8FE" stroke-width="2"/>
<rect x="7.26896" y="22.513" width="43" height="19" transform="rotate(-17.9652 7.26896 22.513)" stroke="#EAE8FE" stroke-width="2"/>
<path d="M25.2937 23.8861L23.0564 24.6116L22.5685 23.1067L24.8058 22.3813L25.2937 23.8861ZM20.9123 25.3068L19.5939 25.7343L20.138 27.4123L29.287 24.4457L28.7429 22.7677L27.4378 23.1909L26.9499 21.686L28.3882 21.2197L27.8441 19.5417L18.442 22.5903L18.9861 24.2683L20.4243 23.8019L20.9123 25.3068ZM28.7219 30.7368L24.2605 32.1834L23.9971 31.371L28.4585 29.9244L28.7219 30.7368ZM31.1088 26.3423L30.5647 24.6643L19.2583 28.3304L19.8023 30.0084L24.3835 28.523L24.6426 29.322L21.3399 30.3929L22.6828 34.5346L31.3791 31.7149L30.0362 27.5731L26.8 28.6225L26.541 27.8234L31.1088 26.3423ZM37.2349 18.8221L37.7833 20.5134L39.3814 19.9952L40.0896 22.1793L42.247 21.4798L40.2088 15.1939L38.0514 15.8935L38.833 18.3039L37.2349 18.8221ZM38.7011 20.8928C36.7301 20.9874 35.6569 20.1285 35.1696 19.0797L37.407 18.3542L36.8629 16.6762L30.1243 18.8612L30.6684 20.5392L32.919 19.8094C33.1485 20.9713 32.7734 22.4469 31.0723 23.6461L32.6152 25.0002C33.9283 24.1476 34.5931 22.9754 34.8113 21.742C35.6506 22.5148 36.798 22.9669 38.2464 22.8947L38.7011 20.8928ZM37.4524 27.9353L37.3142 27.5092L43.5468 25.4883L42.3895 21.9192L34.0128 24.6353L34.5396 26.2601L40.7855 24.2349L40.9194 24.6477L34.6868 26.6686L35.8527 30.2643L44.5224 27.4532L43.9912 25.8151L37.4524 27.9353Z" fill="#EAE8FE"/>
</svg>
